<?xml version="1.0" encoding="UTF-8" standalone="no"?>
<!DOCTYPE svg PUBLIC "-//W3C//DTD SVG 1.1//EN" "http://www.w3.org/Graphics/SVG/1.1/DTD/svg11.dtd">
<svg version="1.1" xmlns="http://www.w3.org/2000/svg" xmlns:xlink="http://www.w3.org/1999/xlink" preserveAspectRatio="xMidYMid meet" viewBox="0 0 900 600" width="900" height="600"><defs><path d="M392.83 5.48C392.83 5.48 392.83 5.48 392.83 5.48C665.37 82.54 816.78 125.35 847.06 133.92C847.06 133.92 847.06 133.92 847.06 133.92C803.59 287.64 779.43 373.04 774.6 390.13C774.6 390.13 774.6 390.13 774.6 390.13C502.06 313.06 350.65 270.25 320.37 261.69C320.37 261.69 320.37 261.69 320.37 261.69C363.84 107.96 388 22.56 392.83 5.48Z" id="b6n35MybY"></path><path d="M400.67 12.43C398.6 12.43 396.91 14.12 396.91 16.19C396.91 18.27 398.6 19.95 400.67 19.95C402.75 19.95 404.44 18.27 404.44 16.19C404.44 14.12 402.75 12.43 400.67 12.43Z" id="dziH8Qjst"></path><path d="M412.26 15.71C410.18 15.71 408.5 17.39 408.5 19.47C408.5 21.55 410.18 23.23 412.26 23.23C414.34 23.23 416.02 21.55 416.02 19.47C416.02 17.39 414.34 15.71 412.26 15.71Z" id="a3VTYLQi4F"></path><path d="M423.84 18.98C421.77 18.98 420.08 20.67 420.08 22.74C420.08 24.82 421.77 26.51 423.84 26.51C425.92 26.51 427.6 24.82 427.6 22.74C427.6 20.67 425.92 18.98 423.84 18.98Z" id="a2e40N3cef"></path><path d="M615.54 168.48C617.29 162.47 617.74 156.14 616.84 149.94C610.64 152.18 605.03 155.8 600.43 160.53C598.99 154.09 596.1 148.07 592 142.92C587.98 147.73 585.05 153.35 583.39 159.39C579.01 155.02 573.76 151.62 567.98 149.41C567.98 149.41 565.24 163.35 571.84 174.78C577.71 184.95 588.99 189.71 591.4 190.64C591.4 190.64 591.42 190.67 591.45 190.71C591.47 190.69 591.48 190.67 591.48 190.67C591.73 190.77 591.86 190.81 591.86 190.81C591.86 190.81 591.92 190.55 591.99 190.07C592.03 190.01 592.08 189.96 592.12 189.9C592.13 189.98 592.14 190.04 592.15 190.11C591.96 190.56 591.86 190.81 591.86 190.81C591.86 190.81 592.01 190.84 592.26 190.89C592.26 190.9 592.27 190.91 592.27 190.94C592.32 190.92 592.35 190.91 592.35 190.91C594.89 191.38 607 193.23 617.33 187.64C628.93 181.36 633.9 168.05 633.9 168.05C627.81 166.9 621.56 167.05 615.54 168.48Z" id="d4EcAgiLRv"></path><path d="M611.38 112.9C605.98 112.9 601.6 117.28 601.6 122.68C601.6 128.08 605.98 132.46 611.38 132.46C616.79 132.46 621.17 128.08 621.17 122.68C621.17 117.28 616.79 112.9 611.38 112.9Z" id="bHmsoqCrc"></path><path d="M734.2 249.66C734.2 249.66 734.2 249.66 734.2 249.66C733.11 253.5 732.51 255.63 732.39 256.06C732.39 256.06 732.39 256.06 732.39 256.06C556.02 206.19 458.04 178.48 438.44 172.94C438.44 172.94 438.44 172.94 438.44 172.94C439.53 169.11 440.13 166.98 440.25 166.55C440.25 166.55 440.25 166.55 440.25 166.55C616.62 216.42 714.6 244.12 734.2 249.66Z" id="e3gPU5WMEO"></path><path d="M509.44 220.51C509.44 220.51 509.44 220.51 509.44 220.51C500.84 250.92 496.06 267.81 495.1 271.19C495.1 271.19 495.1 271.19 495.1 271.19C464.7 262.59 447.8 257.81 444.42 256.86C444.42 256.86 444.42 256.86 444.42 256.86C453.02 226.45 457.8 209.56 458.76 206.18C458.76 206.18 458.76 206.18 458.76 206.18C489.16 214.78 506.06 219.56 509.44 220.51Z" id="dLDalmAs"></path><path d="M603.56 247.12C603.56 247.12 603.56 247.12 603.56 247.12C594.96 277.53 590.18 294.42 589.23 297.8C589.23 297.8 589.23 297.8 589.23 297.8C558.82 289.2 541.92 284.43 538.54 283.47C538.54 283.47 538.54 283.47 538.54 283.47C547.14 253.06 551.92 236.17 552.88 232.79C552.88 232.79 552.88 232.79 552.88 232.79C583.28 241.39 600.18 246.17 603.56 247.12Z" id="b2ahewRvml"></path><path d="M697.68 273.74C697.68 273.74 697.68 273.74 697.68 273.74C689.08 304.14 684.3 321.04 683.35 324.41C683.35 324.41 683.35 324.41 683.35 324.41C652.94 315.82 636.04 311.04 632.67 310.08C632.67 310.08 632.67 310.08 632.67 310.08C641.26 279.68 646.04 262.79 647 259.41C647 259.41 647 259.41 647 259.41C677.41 268.01 694.3 272.78 697.68 273.74Z" id="c27XcbfHdw"></path><path d="M485.72 279.48C485.72 279.48 485.72 279.48 485.72 279.48C484.98 282.09 484.58 283.53 484.49 283.82C484.49 283.82 484.49 283.82 484.49 283.82C461.9 277.44 449.36 273.89 446.85 273.18C446.85 273.18 446.85 273.18 446.85 273.18C447.58 270.57 447.99 269.12 448.07 268.83C448.07 268.83 448.07 268.83 448.07 268.83C470.66 275.22 483.21 278.77 485.72 279.48Z" id="b2FWnkW3j"></path><path d="M579.84 306.09C579.84 306.09 579.84 306.09 579.84 306.09C579.11 308.7 578.7 310.15 578.61 310.44C578.61 310.44 578.61 310.44 578.61 310.44C556.03 304.05 543.48 300.5 540.97 299.79C540.97 299.79 540.97 299.79 540.97 299.79C541.7 297.19 542.11 295.74 542.19 295.45C542.19 295.45 542.19 295.45 542.19 295.45C564.78 301.83 577.33 305.38 579.84 306.09Z" id="b3MaCXED09"></path><path d="M673.96 332.71C673.96 332.71 673.96 332.71 673.96 332.71C673.23 335.31 672.82 336.76 672.74 337.05C672.74 337.05 672.74 337.05 672.74 337.05C650.15 330.66 637.6 327.11 635.09 326.4C635.09 326.4 635.09 326.4 635.09 326.4C635.82 323.8 636.23 322.35 636.32 322.06C636.32 322.06 636.32 322.06 636.32 322.06C658.9 328.45 671.45 332 673.96 332.71Z" id="a17m1pg1yg"></path><path d="M508.55 351.53C508.55 356.67 395.82 360.84 256.76 360.84C117.7 360.84 4.97 356.67 4.97 351.53C4.97 346.39 117.7 342.22 256.76 342.22C395.82 342.22 508.55 346.39 508.55 351.53Z" id="aRkw5kcH"></path><path d="M900 457.02C900 462.17 812.28 466.33 704.06 466.33C595.85 466.33 508.13 462.17 508.13 457.02C508.13 451.88 595.85 447.72 704.06 447.72C812.28 447.72 900 451.88 900 457.02Z" id="b1IpetklPN"></path><path d="M607.97 384.77L664.49 384.77L664.49 408.41L631.6 408.41L631.6 432.05L664.5 432.05L664.5 455.69L607.97 455.69L607.97 384.77ZM732.33 384.77L732.33 405.33L699.44 405.33L699.44 409.44L732.33 409.44L732.33 456.71L675.8 456.71L675.8 435.13L708.69 435.13L708.69 431.02L675.8 431.02L675.8 384.77L732.33 384.77ZM800.16 384.77L800.16 405.33L767.27 405.33L767.27 409.44L800.16 409.44L800.16 456.71L743.63 456.71L743.63 435.13L776.52 435.13L776.52 431.02L743.64 431.02L743.64 384.77L800.16 384.77Z" id="aTErZQKdx"></path><path d="M137.24 276.62L137.24 299.66L158.57 299.66L158.57 276.62L181.89 276.62L181.89 346.38L158.57 346.38L158.57 323.02L137.24 323.02L137.24 346.38L113.92 346.38L113.92 276.62L137.24 276.62ZM192.03 299.76L192.03 276.62L256.42 276.62L256.42 299.76L235.88 299.76L235.88 346.38L212.56 346.38L212.56 299.76L212.55 299.76L192.03 299.76ZM266.64 276.62L290.95 276.62L305.91 301.13L320.85 276.62L345.18 276.62L345.18 346.38L321.95 346.38L321.95 311.81L305.91 336.61L305.5 336.61L289.45 311.81L289.45 346.38L266.64 346.38L266.64 276.62ZM380.11 276.62L380.11 323.32L412.9 323.32L412.9 346.38L356.78 346.38L356.78 276.62L380.11 276.62Z" id="a1lmVGxjpr"></path><path d="M70.82 346.26L86.13 344.99L86.13 326.49L72.73 324.57L72.73 324.57L70.82 346.26Z" id="b2E75WvZtK"></path><path d="M60.61 346.26L45.3 344.99L45.3 326.49L58.69 324.57L58.69 324.57L60.61 346.26Z" id="b28o9LMb3E"></path><path d="M103.99 193.16C103.99 193.16 102.08 226.33 98.89 232.07C98.89 232.07 95.06 240.37 96.34 242.92C96.34 242.92 96.97 244.83 96.34 246.75C96.34 246.75 94.42 248.02 96.34 250.57C97.94 252.87 97.94 255.93 96.34 258.23C95.06 260.14 98.89 311.82 93.78 315.64C88.68 319.47 87.4 332.23 87.4 332.23C86.3 332.1 80.77 331.46 70.82 330.31C70.82 321.89 70.82 317.22 70.82 316.28C70.82 316.28 66.99 306.07 69.54 299.69C69.54 299.69 73.37 259.51 73.37 259.51C73.37 259.51 72.73 256.32 73.37 254.4C73.37 254.4 73.37 251.21 72.09 250.57C72.09 250.57 70.18 247.38 70.18 247.38C70.05 244.28 69.41 228.76 68.26 200.82C63.67 228.37 61.12 243.68 60.61 246.75C60.61 246.75 68.26 309.26 60.61 317.56C60.61 318.53 60.61 323.43 60.61 332.23L44.02 332.23C45.55 322.66 46.4 317.34 46.57 316.28C46.57 316.28 41.47 301.61 44.02 298.42C44.02 298.42 36.37 244.19 37.64 242.28C37.64 242.28 38.28 239.73 37.64 238.45C37.64 238.45 35.09 235.9 35.73 234.63C35.73 234.63 35.73 230.8 35.73 230.8C35.73 230.8 23.61 170.83 29.35 165.09C35.09 159.35 98.89 158.07 98.89 158.07C99.91 165.09 103.99 188.7 103.99 193.16Z" id="d7V42Y3r0"></path><path d="M74.64 337.97C74.64 337.97 75.92 331.85 86.13 333.95C86.13 333.95 88.68 339.25 88.68 341.8C88.68 344.35 91.23 361.57 91.23 361.57C91.23 361.57 101.44 378.8 88.68 378.8C75.92 378.8 71.45 374.33 70.82 369.87C70.18 365.4 71.45 364.13 68.9 362.21C66.35 360.3 65.07 360.3 65.71 357.75C66.35 355.19 67.63 342.44 67.63 342.44C67.63 342.44 68.26 332.87 71.77 335.42C72.01 335.59 73.18 336.44 75.28 337.97" id="c2IpF10Mlj"></path><path d="M56.78 337.97C56.78 337.97 55.5 331.85 45.3 333.95C45.3 333.95 42.75 339.25 42.75 341.8C42.75 344.35 40.19 361.57 40.19 361.57C40.19 361.57 29.99 378.8 42.75 378.8C55.51 378.8 59.97 374.33 60.61 369.87C61.25 365.4 59.97 364.13 62.52 362.21C65.07 360.3 66.35 360.3 65.71 357.75C65.07 355.19 63.8 342.44 63.8 342.44C63.8 342.44 63.16 332.87 59.65 335.42C59.42 335.59 58.25 336.44 56.14 337.97" id="doutFxYAk"></path><path d="M75.28 6.25C65.77 6.25 58.06 13.96 58.06 23.47C58.06 32.98 65.77 40.7 75.28 40.7C84.8 40.7 92.51 32.98 92.51 23.47C92.51 13.96 84.8 6.25 75.28 6.25Z" id="b26yh1SSCs"></path><path d="M61.25 26.02C61.25 26.02 54.23 53.45 52.95 54.09C52.95 54.09 82.3 57.28 82.3 57.28C82.3 57.28 74.64 33.68 82.3 29.85C78.09 29.09 65.46 26.79 61.25 26.02Z" id="hWk528nyu"></path><path d="M56.76 42.74L35.73 57.28C38.02 125.8 39.3 163.86 39.56 171.47C39.56 171.47 67.63 168.28 74.01 168.92C74.01 168.92 100.8 163.18 100.8 163.18C99.91 152.45 92.75 66.61 91.86 55.88C91.5 51.55 88.03 48.13 83.7 47.82C83.31 47.79 80.25 47.58 79.86 47.55C79.86 47.55 76.04 57.03 64.52 52.14C60.58 50.42 57.7 46.93 56.77 42.74C56.77 42.74 56.76 42.74 56.76 42.74Z" id="e43EGlFIYr"></path><path d="M31.26 54.09C28.2 98.11 26.5 122.56 26.16 127.45C26.16 127.45 15.95 171.47 24.24 184.23C24.24 184.23 46.57 198.26 46.57 198.26C46.57 198.26 65.07 124.9 59.97 100.02C54.87 75.14 57.27 41.7 57.27 41.7C53.81 43.35 45.13 47.48 31.26 54.09Z" id="e2bY0irieu"></path><path d="M8.29 152.33C8.29 158.07 8.29 161.26 8.29 161.9C8.29 161.9 4.47 182.95 16.59 182.32C16.59 182.32 22.97 159.35 22.97 159.35C22.71 158.88 21.44 156.54 19.14 152.33L8.29 152.33Z" id="cHSVUngVn"></path><path d="M120.58 171.47C119.81 177.98 119.39 181.59 119.3 182.32C119.3 182.32 125.68 204.01 113.56 204.64C113.56 204.64 110.24 182.45 110.24 182.45C110.5 181.63 111.82 177.55 114.2 170.2L120.58 171.47Z" id="a1o2TRENzD"></path><path d="M79.48 45.32C91.11 48.18 101.88 53.78 110.9 61.65C110.91 61.66 110.94 61.69 111.01 61.75L102.08 108.95C101.31 119.29 100.89 125.03 100.8 126.18C100.8 126.18 124.41 210.38 96.97 198.26C96.97 198.26 73.37 124.9 76.56 91.09C79.75 57.28 79.48 45.32 79.48 45.32C79.48 45.32 79.48 45.32 79.48 45.32Z" id="e3JP4D776P"></path><path d="M102.72 61.11C103.35 60.47 111.01 62 111.01 62C111.01 62 125.05 111.51 125.05 119.8C125.05 128.09 126.96 175.3 126.96 175.3C125.84 175.41 120.22 175.98 110.12 177L96.49 111.41C99.81 84.58 101.89 67.82 102.72 61.11Z" id="a5q8cZrcch"></path><path d="M35.73 54.09C33.05 54.09 31.56 54.09 31.26 54.09C31.26 54.09 18.5 59.2 17.86 64.94C17.86 64.94 0 128.73 0 128.73C0.3 130.69 1.79 140.47 4.47 158.07L21.05 155.52L24.24 122.99L40.83 87.26L35.73 54.09Z" id="k1zVkl9xjq"></path><path d="M72.6 23.68C72.75 22.6 73.38 21.19 74.42 21.48C75.31 21.73 77.25 22.49 77.57 22.26C78.78 21.4 80.62 22.91 81.89 22.14C82.43 21.82 82.78 21.14 83.4 21.09C83.81 21.12 84.21 21.3 84.5 21.59C85.33 22.31 86.31 22.84 87.36 23.14C88.44 23.44 89.59 23.12 90.37 22.32C90.5 22.12 90.69 21.94 90.9 21.81C91.15 21.74 91.42 21.75 91.67 21.85C91.99 21.94 94.6 22.65 94.93 22.74C95.9 19.22 95.28 15.46 93.25 12.43C91.93 10.63 90.33 9.06 88.5 7.78C85.48 5.48 82.88 3.88 82.25 3.45C79.98 1.84 77.39 0.71 74.66 0.14C71.91 -0.27 68.84 0.47 67.11 2.65C66.3 2.06 65.68 1.24 65.36 0.29C64.63 0.95 64.57 2.08 65.24 2.82C65.31 2.89 65.39 2.97 65.47 3.03C65.2 2.86 62.99 1.45 62.72 1.27C61.94 2.09 63.46 3.56 62.8 4.47C62.6 4.69 62.34 4.86 62.05 4.95C60.56 5.54 59.19 6.4 58.01 7.5C56.53 9.19 55.44 11.19 54.83 13.36C53.19 18.07 51.99 23.48 54.33 27.89C54.59 28.39 58.08 36.64 58.55 36.96C60.12 38.05 59.1 35.42 60.23 36.96C61.11 38.17 60.94 33.54 62.26 34.55C63.31 35.31 64.71 35.37 65.82 34.71C66.37 34.34 66.19 32.24 65.9 30.31C65.71 29.08 66.56 27.92 67.79 27.73C68.08 27.68 68.37 27.7 68.66 27.76C70.29 28.15 71.91 28.47 71.94 28.28C72.07 27.36 72.53 24.14 72.6 23.68Z" id="b9zdpkvCuP"></path><path d="M111.33 176.89L106.86 176.89L104.31 118.84L104.31 118.84L111.33 176.89Z" id="fyG61LjZP"></path><path d="M26.76 118.84L33.49 96.51L31.58 96.51L30.3 96.51L30.3 96.51L26.76 118.84Z" id="cEwz6o9jA"></path></defs><g><g><g><use xlink:href="#b6n35MybY" opacity="1" fill="#3f3d56" fill-opacity="1"></use><g><use xlink:href="#b6n35MybY" opacity="1" fill-opacity="0" stroke="#000000" stroke-width="1" stroke-opacity="0"></use></g></g><g><use xlink:href="#dziH8Qjst" opacity="1" fill="#ff6366" fill-opacity="1"></use><g><use xlink:href="#dziH8Qjst" opacity="1" fill-opacity="0" stroke="#000000" stroke-width="1" stroke-opacity="0"></use></g></g><g><use xlink:href="#a3VTYLQi4F" opacity="1" fill="#ff6366" fill-opacity="1"></use><g><use xlink:href="#a3VTYLQi4F" opacity="1" fill-opacity="0" stroke="#000000" stroke-width="1" stroke-opacity="0"></use></g></g><g><use xlink:href="#a2e40N3cef" opacity="1" fill="#ff6366" fill-opacity="1"></use><g><use xlink:href="#a2e40N3cef" opacity="1" fill-opacity="0" stroke="#000000" stroke-width="1" stroke-opacity="0"></use></g></g><g><use xlink:href="#d4EcAgiLRv" opacity="1" fill="#ff6366" fill-opacity="1"></use><g><use xlink:href="#d4EcAgiLRv" opacity="1" fill-opacity="0" stroke="#000000" stroke-width="1" stroke-opacity="0"></use></g></g><g><use xlink:href="#bHmsoqCrc" opacity="1" fill="#ff6366" fill-opacity="1"></use><g><use xlink:href="#bHmsoqCrc" opacity="1" fill-opacity="0" stroke="#000000" stroke-width="1" stroke-opacity="0"></use></g></g><g><use xlink:href="#e3gPU5WMEO" opacity="1" fill="#ff6366" fill-opacity="1"></use><g><use xlink:href="#e3gPU5WMEO" opacity="1" fill-opacity="0" stroke="#000000" stroke-width="1" stroke-opacity="0"></use></g></g><g><use xlink:href="#dLDalmAs" opacity="1" fill="#ff6366" fill-opacity="1"></use><g><use xlink:href="#dLDalmAs" opacity="1" fill-opacity="0" stroke="#000000" stroke-width="1" stroke-opacity="0"></use></g></g><g><use xlink:href="#b2ahewRvml" opacity="1" fill="#ff6366" fill-opacity="1"></use><g><use xlink:href="#b2ahewRvml" opacity="1" fill-opacity="0" stroke="#000000" stroke-width="1" stroke-opacity="0"></use></g></g><g><use xlink:href="#c27XcbfHdw" opacity="1" fill="#ff6366" fill-opacity="1"></use><g><use xlink:href="#c27XcbfHdw" opacity="1" fill-opacity="0" stroke="#000000" stroke-width="1" stroke-opacity="0"></use></g></g><g><use xlink:href="#b2FWnkW3j" opacity="1" fill="#ff6366" fill-opacity="1"></use><g><use xlink:href="#b2FWnkW3j" opacity="1" fill-opacity="0" stroke="#000000" stroke-width="1" stroke-opacity="0"></use></g></g><g><use xlink:href="#b3MaCXED09" opacity="1" fill="#ff6366" fill-opacity="1"></use><g><use xlink:href="#b3MaCXED09" opacity="1" fill-opacity="0" stroke="#000000" stroke-width="1" stroke-opacity="0"></use></g></g><g><use xlink:href="#a17m1pg1yg" opacity="1" fill="#ff6366" fill-opacity="1"></use><g><use xlink:href="#a17m1pg1yg" opacity="1" fill-opacity="0" stroke="#000000" stroke-width="1" stroke-opacity="0"></use></g></g><g><use xlink:href="#aRkw5kcH" opacity="1" fill="#d0cde1" fill-opacity="1"></use><g><use xlink:href="#aRkw5kcH" opacity="1" fill-opacity="0" stroke="#000000" stroke-width="1" stroke-opacity="0"></use></g></g><g><use xlink:href="#b1IpetklPN" opacity="1" fill="#d0cde1" fill-opacity="1"></use><g><use xlink:href="#b1IpetklPN" opacity="1" fill-opacity="0" stroke="#000000" stroke-width="1" stroke-opacity="0"></use></g></g><g><use xlink:href="#aTErZQKdx" opacity="1" fill="#3f3d56" fill-opacity="1"></use><g><use xlink:href="#aTErZQKdx" opacity="1" fill-opacity="0" stroke="#000000" stroke-width="1" stroke-opacity="0"></use></g></g><g><use xlink:href="#a1lmVGxjpr" opacity="1" fill="#3f3d56" fill-opacity="1"></use><g><use xlink:href="#a1lmVGxjpr" opacity="1" fill-opacity="0" stroke="#000000" stroke-width="1" stroke-opacity="0"></use></g></g><g><use xlink:href="#b2E75WvZtK" opacity="1" fill="#ffb8b8" fill-opacity="1"></use><g><use xlink:href="#b2E75WvZtK" opacity="1" fill-opacity="0" stroke="#000000" stroke-width="1" stroke-opacity="0"></use></g></g><g><use xlink:href="#b28o9LMb3E" opacity="1" fill="#ffb8b8" fill-opacity="1"></use><g><use xlink:href="#b28o9LMb3E" opacity="1" fill-opacity="0" stroke="#000000" stroke-width="1" stroke-opacity="0"></use></g></g><g><use xlink:href="#d7V42Y3r0" opacity="1" fill="#2f2e41" fill-opacity="1"></use><g><use xlink:href="#d7V42Y3r0" opacity="1" fill-opacity="0" stroke="#000000" stroke-width="1" stroke-opacity="0"></use></g></g><g><use xlink:href="#c2IpF10Mlj" opacity="1" fill="#2f2e41" fill-opacity="1"></use><g><use xlink:href="#c2IpF10Mlj" opacity="1" fill-opacity="0" stroke="#000000" stroke-width="1" stroke-opacity="0"></use></g></g><g><use xlink:href="#doutFxYAk" opacity="1" fill="#2f2e41" fill-opacity="1"></use><g><use xlink:href="#doutFxYAk" opacity="1" fill-opacity="0" stroke="#000000" stroke-width="1" stroke-opacity="0"></use></g></g><g><use xlink:href="#b26yh1SSCs" opacity="1" fill="#ffb8b8" fill-opacity="1"></use><g><use xlink:href="#b26yh1SSCs" opacity="1" fill-opacity="0" stroke="#000000" stroke-width="1" stroke-opacity="0"></use></g></g><g><use xlink:href="#hWk528nyu" opacity="1" fill="#ffb8b8" fill-opacity="1"></use><g><use xlink:href="#hWk528nyu" opacity="1" fill-opacity="0" stroke="#000000" stroke-width="1" stroke-opacity="0"></use></g></g><g><use xlink:href="#e43EGlFIYr" opacity="1" fill="#d0cde1" fill-opacity="1"></use><g><use xlink:href="#e43EGlFIYr" opacity="1" fill-opacity="0" stroke="#000000" stroke-width="1" stroke-opacity="0"></use></g></g><g><use xlink:href="#e2bY0irieu" opacity="1" fill="#575a89" fill-opacity="1"></use><g><use xlink:href="#e2bY0irieu" opacity="1" fill-opacity="0" stroke="#000000" stroke-width="1" stroke-opacity="0"></use></g></g><g><use xlink:href="#cHSVUngVn" opacity="1" fill="#ffb8b8" fill-opacity="1"></use><g><use xlink:href="#cHSVUngVn" opacity="1" fill-opacity="0" stroke="#000000" stroke-width="1" stroke-opacity="0"></use></g></g><g><use xlink:href="#a1o2TRENzD" opacity="1" fill="#ffb8b8" fill-opacity="1"></use><g><use xlink:href="#a1o2TRENzD" opacity="1" fill-opacity="0" stroke="#000000" stroke-width="1" stroke-opacity="0"></use></g></g><g><use xlink:href="#e3JP4D776P" opacity="1" fill="#575a89" fill-opacity="1"></use><g><use xlink:href="#e3JP4D776P" opacity="1" fill-opacity="0" stroke="#000000" stroke-width="1" stroke-opacity="0"></use></g></g><g><use xlink:href="#a5q8cZrcch" opacity="1" fill="#575a89" fill-opacity="1"></use><g><use xlink:href="#a5q8cZrcch" opacity="1" fill-opacity="0" stroke="#000000" stroke-width="1" stroke-opacity="0"></use></g></g><g><use xlink:href="#k1zVkl9xjq" opacity="1" fill="#575a89" fill-opacity="1"></use><g><use xlink:href="#k1zVkl9xjq" opacity="1" fill-opacity="0" stroke="#000000" stroke-width="1" stroke-opacity="0"></use></g></g><g><use xlink:href="#b9zdpkvCuP" opacity="1" fill="#2f2e41" fill-opacity="1"></use><g><use xlink:href="#b9zdpkvCuP" opacity="1" fill-opacity="0" stroke="#000000" stroke-width="1" stroke-opacity="0"></use></g></g><g><use xlink:href="#fyG61LjZP" opacity="1" fill="#000000" fill-opacity="1"></use><g><use xlink:href="#fyG61LjZP" opacity="1" fill-opacity="0" stroke="#000000" stroke-width="1" stroke-opacity="0"></use></g></g><g><use xlink:href="#cEwz6o9jA" opacity="1" fill="#000000" fill-opacity="1"></use><g><use xlink:href="#cEwz6o9jA" opacity="1" fill-opacity="0" stroke="#000000" stroke-width="1" stroke-opacity="0"></use></g></g></g></g></svg>